<?xml version="1.0" standalone="no"?>
<!DOCTYPE svg PUBLIC "-//W3C//DTD SVG 1.1//EN" "http://www.w3.org/Graphics/SVG/1.1/DTD/svg11.dtd" >
<svg xmlns="http://www.w3.org/2000/svg" xmlns:xlink="http://www.w3.org/1999/xlink" version="1.1">
<metadata></metadata>
<defs>
<font id="artisticregular" horiz-adv-x="1139" >
<font-face units-per-em="2048" ascent="1638" descent="-410" />
<missing-glyph horiz-adv-x="569" />
<glyph horiz-adv-x="0" />
<glyph unicode="&#xd;" horiz-adv-x="569" />
<glyph unicode=" "  horiz-adv-x="569" />
<glyph unicode="&#x09;" horiz-adv-x="569" />
<glyph unicode="&#xa0;" horiz-adv-x="569" />
<glyph unicode="!" horiz-adv-x="569" />
<glyph unicode="&#x22;" horiz-adv-x="727" />
<glyph unicode="#" />
<glyph unicode="$" />
<glyph unicode="%" horiz-adv-x="1821" />
<glyph unicode="&#x26;" horiz-adv-x="1366" />
<glyph unicode="'" horiz-adv-x="391" />
<glyph unicode="(" horiz-adv-x="682" />
<glyph unicode=")" horiz-adv-x="682" />
<glyph unicode="*" horiz-adv-x="797" />
<glyph unicode="+" horiz-adv-x="1196" />
<glyph unicode="," horiz-adv-x="569" />
<glyph unicode="-" horiz-adv-x="682" />
<glyph unicode="." horiz-adv-x="569" />
<glyph unicode="/" horiz-adv-x="569" />
<glyph unicode="0" />
<glyph unicode="1" />
<glyph unicode="2" />
<glyph unicode="3" />
<glyph unicode="4" />
<glyph unicode="5" />
<glyph unicode="6" />
<glyph unicode="7" />
<glyph unicode="8" />
<glyph unicode="9" />
<glyph unicode=":" horiz-adv-x="569" />
<glyph unicode=";" horiz-adv-x="569" />
<glyph unicode="&#x3c;" horiz-adv-x="1196" />
<glyph unicode="=" horiz-adv-x="1196" />
<glyph unicode="&#x3e;" horiz-adv-x="1196" />
<glyph unicode="?" />
<glyph unicode="@" horiz-adv-x="2079" />
<glyph unicode="A" horiz-adv-x="968" d="M50 603v2l5 207q0 141 100 241q99 100 241 100h105q141 0 241 -100q100 -102 100 -241l-4 -156l-2 -209q3 -14 6.5 -33t31.5 -19q44 -1 33.5 -18t-40.5 -38q-30 -23 -75 -47.5t-85 -28.5q-7 -1 -14 -1q-40 0 -70 26q-60 -25 -128 -25h-104q-141 0 -241 100 q-100 98 -100 240zM311 603h1q0 -32 23 -55t56 -23h104q33 0 56 23t23 55l5 209q0 34 -23 56q-23 23 -55 23h-105q-33 0 -56 -23t-23 -56l-1 -1z" />
<glyph unicode="B" horiz-adv-x="967" d="M60 1364q10 17 40 38q32 22 76.5 46.5t83.5 29.5q9 1 17 1q59 1 83 -43q28 -50 33 -71v-60q4 -30 23 -49q23 -23 56 -23h105q142 0 240 -100q100 -100 100 -241v-289q0 -141 -99 -241q-101 -100 -241 -100h-105q-41 0 -79 9v-9h-263v1032q-1 13 -5 33t-32 20 q-43 0 -33 17zM393 597q4 -31 23 -49q23 -24 56 -24h105q33 0 55 24q23 21 23 55v289q0 32 -23 55q-22 24 -55 24h-105q-41 0 -79 9v-383z" />
<glyph unicode="C" horiz-adv-x="892" d="M50 603v2l6 207h-1q0 141 100 241t241 100h105q141 0 241 -100q100 -102 100 -241q-6 -20 -33 -70q-23 -43 -81 -43q-9 0 -20 1q-39 3 -83.5 28t-76.5 47q-30 21 -40 38.5t34 17.5q21 0 30 15q-7 14 -16 22q-23 23 -55 23h-105q-31 0 -56 -23q-23 -23 -23 -56v-1l-6 -208 h1q0 -32 23 -55q25 -23 56 -23h105q32 0 55 23t23 55h262q0 -142 -100 -240q-98 -100 -240 -100h-105q-141 0 -241 100q-100 98 -100 240z" />
<glyph unicode="D" horiz-adv-x="968" d="M50 603v289q0 141 100 241t241 100h105q32 0 55 23q22 21 23 49v60q6 21 34 71q24 43 82 43q8 0 17 -1q40 -5 85 -29.5t76 -46.5q30 -21 40 -38t-34 -17q-27 0 -31 -20t-6 -33v-1032h-263v9q-37 -9 -78 -9h-105q-139 0 -241 100q-100 100 -100 241zM312 603q0 -32 23 -55 q24 -24 56 -24h105q33 0 55 24q22 19 23 49v383q-37 -9 -78 -9h-105q-32 0 -56 -24q-23 -23 -23 -55v-289z" />
<glyph unicode="E" horiz-adv-x="928" d="M50 538v339q0 114 100 195q101 81 241 81h105q141 0 241 -81t100 -195t-100 -194q-100 -81 -241 -81h-105q-30 0 -56 -19q-23 -20 -23 -45q0 -27 24 -46q22 -18 55 -18h120q31 0 55 18q17 23 37 33q14 8 38 13q13 2 26 2q29 0 63 -8q50 -12 85 -26q35 -12 49 -26.5 t-28 -25.5q-13 -4 -21 -13l-2 -2q-26 -56 -76 -96q-100 -81 -241 -81h-105q-140 0 -241 81q-100 80 -100 195zM312 806q37 7 79 7h105q31 0 56 19q23 19 23 45q0 27 -24 45q-22 19 -55 19h-105q-32 0 -55 -19q-24 -18 -24 -45v-71z" />
<glyph unicode="F" horiz-adv-x="887" d="M50 52v341v1v2v416q0 139 100 241q100 100 241 100h105q141 0 241 -100t100 -241q-5 -20 -33 -70q-24 -43 -81 -43q-9 0 -19 1q-39 3 -84 28t-77 47q-30 21 -39.5 38.5t33.5 17.5q22 0 30 15q-7 14 -15 22q-24 23 -56 23h-105q-32 0 -55 -23q-24 -24 -24 -56v-88 q44 10 79 10h105v-263h-105q-32 0 -55 -23q-24 -23 -24 -55v-341h-262z" />
<glyph unicode="G" horiz-adv-x="933" d="M64 335.5q14 14.5 48 26.5q36 13 86 26q34 8 63 8q13 0 26 -2q56 -9 81 -57q22 -20 52 -20h123q32 0 55 23t23 56t-23 55q-21 23 -55 23h-105q-140 0 -241 101q-100 100 -100 240q0 142 100 241q100 100 241 100h105q141 0 241 -100q99 -99 99 -241v-419q0 -141 -99 -241 q-100 -100 -241 -100h-105q-141 0 -241 100q-57 59 -83 141q-1 0 -2 1q-7 9 -20 13q-42 11 -28 25.5zM359 815q0 -33 23 -56q22 -22 56 -22h105q41 0 78 -9v87q0 33 -23 56t-55 23h-105q-33 0 -56 -23t-23 -56z" />
<glyph unicode="H" horiz-adv-x="969" d="M60.5 1364q10.5 17 40.5 38q31 22 75.5 46.5t84.5 29.5q9 1 17 1q58 1 82 -43q28 -50 34 -71v-349q2 -28 23 -49q24 -23 56 -23h105q141 0 241 -100t100 -241v-341h-262v341q0 32 -24 56q-23 23 -55 23h-105q-40 0 -79 9v-429h-262v1032q-3 13 -6.5 33t-30.5 20 q-45 0 -34.5 17z" />
<glyph unicode="I" horiz-adv-x="445" d="M60.5 856.5q10.5 17.5 40.5 38.5q31 22 75.5 46.5t84.5 29.5q9 1 17 1q60 0 84 -44q28 -50 33 -70h-1v-596h-262v525q-2 13 -6 32.5t-31 19.5q-45 0 -34.5 17.5zM60.5 1250q10.5 17 40.5 38q31 22 75.5 46.5t84.5 29.5q9 1 17 1q60 1 84 -43q28 -50 33 -71h-1v-149h-262 v78q-2 13 -6 32.5t-31 20.5q-45 0 -34.5 17z" />
<glyph unicode="J" horiz-adv-x="546" d="M50 55v262h105q32 0 55 23q24 22 24 56v391q-3 13 -6.5 32.5t-31.5 19.5q-44 0 -34 17.5t41 38.5q31 22 75.5 46.5t84.5 29.5q9 1 17 1q58 0 82 -44q28 -49 34 -70v-462q0 -141 -100 -241t-241 -100h-105zM162 1250q10 17 41 38q31 22 75.5 46.5t84.5 29.5q9 1 17 1 q58 0 82 -43q28 -50 34 -71v-149h-262v78q-3 13 -6.5 32.5t-31.5 20.5q-44 0 -34 17z" />
<glyph unicode="K" horiz-adv-x="968" d="M60 1364q10 17 40 38q31 22 76 46.5t85 29.5q9 1 17 1q58 1 82 -43q28 -50 34 -71v-349q3 -30 23 -49q23 -23 55 -23h105q33 0 56 23t23 56v79h262v-79q0 -118 -72 -210q72 -93 72 -210v-341h-262v341q0 31 -23 56q-23 23 -56 23h-105q-41 0 -78 9v-429h-263v1032 q-2 13 -6 33t-31 20q-44 0 -34 17z" />
<glyph unicode="L" horiz-adv-x="628" d="M60 1364q10 17 41 38q31 22 75.5 46.5t84.5 29.5q9 1 17 1q58 1 82 -43q28 -50 34 -71l-5 -1h5v-761q0 -32 23 -55t56 -23h105v-262h-105q-141 0 -241 100q-100 98 -100 240v691h-1q-2 13 -6 33t-31 20q-44 0 -34 17z" />
<glyph unicode="M" horiz-adv-x="1410" d="M50 263v549q0 141 100 241t241 100h105q117 0 210 -72q92 72 209 72h106q141 0 240 -100q100 -100 100 -241v-549h-262v549q0 33 -23 56t-55 23h-106q-32 0 -55 -23t-23 -56v-549h-262v549q0 33 -23 56q-25 23 -56 23h-105q-32 0 -56 -23q-23 -23 -23 -56v-549h-262z" />
<glyph unicode="N" horiz-adv-x="886" d="M50 263v549q0 141 100 241q98 100 241 100h104q142 0 241 -100q100 -100 100 -241v-549h-262v549q0 33 -23 56t-56 23h-104q-33 0 -56 -23t-23 -56v-549h-262z" />
<glyph unicode="O" horiz-adv-x="891" d="M50 603v2l5 207q0 141 100 241q98 100 241 100h104q142 0 242 -100q99 -101 99 -241l-5 -217q-4 -137 -100 -232q-99 -100 -241 -100h-104q-141 0 -241 100q-100 98 -100 240zM311 603h1q0 -32 23 -55t56 -23h104q33 0 56 23t23 55l5 209q0 34 -23 56q-23 23 -56 23h-104 q-33 0 -56 -23t-23 -56l-1 -1z" />
<glyph unicode="P" horiz-adv-x="968" d="M60.5 1039.5q10.5 17.5 40.5 38.5q31 21 75.5 46t84.5 29q6 1 12 1q48 0 82 -35l39 25q37 9 79 9h105q141 0 241 -100q99 -101 99 -241v-289q0 -141 -99 -240q-100 -100 -241 -100h-105q-34 0 -56 -24q-20 -19 -23 -49v-60h-262v919q-3 13 -6.5 33t-31.5 20 q-44 0 -33.5 17.5zM394 436q45 9 79 9h105q32 0 55 23q24 22 24 55v289q0 33 -24 56q-23 23 -55 23h-105q-33 0 -56 -23q-20 -20 -23 -49v-383z" />
<glyph unicode="Q" horiz-adv-x="967" d="M50 523v289q0 141 100 241q98 100 241 100h105q40 0 78 -9l40 -25q31 35 80 35q6 0 13 -1q39 -4 84 -29t77 -46q30 -21 39.5 -38.5t-33.5 -17.5q-28 0 -32 -20t-5 -33v-919h-263v60q-4 30 -23 49q-23 24 -55 24h-105q-143 0 -241 100q-100 98 -100 240zM312 523 q0 -32 23 -55t56 -23h105q33 0 78 -9v383q-4 29 -23 49q-23 23 -55 23h-105q-33 0 -56 -23t-23 -56v-289z" />
<glyph unicode="R" horiz-adv-x="887" d="M50 263v549q0 141 100 241t241 100h105q141 0 241 -100q100 -102 100 -241q-5 -20 -33 -70q-24 -43 -82 -43q-9 0 -19 1q-40 3 -84.5 28t-75.5 47q-30 21 -40.5 38.5t34.5 17.5q21 0 29 15q-5 11 -15 22q-23 23 -55 23h-105q-33 0 -56 -23t-23 -56v-549h-262z" />
<glyph unicode="S" horiz-adv-x="887" d="M50 538h262q0 -27 23 -45q23 -19 56 -19h105q32 0 55 18t23 46q0 26 -23 45q-25 19 -55 19h-105q-141 0 -241 81q-100 80 -100 194t100 195q98 81 241 81h105q140 0 241 -81q76 -63 95 -150q-6 -20 -34 -70q-24 -43 -80 -43q-9 0 -19 1q-40 3 -85 28t-76 47 q-41 28 -41 43q0 9 16 12q-6 1 -17 1h-105q-33 0 -56 -19t-23 -45t23 -45q24 -19 56 -19h105q139 0 241 -80q100 -82 100 -195q0 -114 -100 -195q-101 -81 -241 -81h-105q-143 0 -241 81q-100 80 -100 195z" />
<glyph unicode="T" horiz-adv-x="969" d="M60.5 1364q10.5 17 40.5 38q31 22 75.5 46.5t84.5 29.5q9 1 17 1q58 1 82 -43q28 -50 34 -71l-5 -1h5v-341q0 -32 23 -55q22 -24 55 -24h106v-261h-106q-41 0 -78 9v-89q0 -32 23 -55t55 -23h106q32 0 55 23t23 55h263q0 -141 -101 -240q-99 -100 -240 -100h-106 q-142 0 -240 100q-100 98 -100 240v420v271q-3 13 -6.5 33t-31.5 20q-44 0 -33.5 17z" />
<glyph unicode="U" horiz-adv-x="968" d="M60.5 1039.5q10.5 17.5 40.5 38.5q31 21 75.5 46t84.5 29q9 1 18 1q57 0 81 -42q28 -48 34 -69v-2v-1v-437q0 -32 23 -55t55 -23h105q33 0 56 23t23 55v550h262v-550q0 -142 -100 -240q-99 -100 -241 -100h-105q-142 0 -240 100q-101 99 -101 240v366q-2 13 -6 33t-31 20 q-44 0 -33.5 17.5z" />
<glyph unicode="V" horiz-adv-x="929" d="M60 1039.5q10 17.5 41 38.5q30 21 65 43t75 27q8 1 16 1q59 -1 83 -43q28 -48 34 -70v-1l109 -504l128 622h268l-218 -890h-178h-178l-174 706q-2 13 -6 33t-31 20q-44 0 -34 17.5z" />
<glyph unicode="W" horiz-adv-x="1493" d="M60.5 1039.5q10.5 17.5 40.5 38.5t74.5 45.5t84.5 29.5q9 1 17 1q59 0 83 -44q28 -50 34 -70v-437q0 -32 23 -55t55 -23h105q33 0 56 23t23 55v550h262v-550q0 -32 23 -55q24 -23 56 -23h105q32 0 55 23q24 22 24 55v550h262v-550q0 -140 -100 -240t-241 -100h-105 q-118 0 -210 72q-93 -72 -210 -72h-105q-142 0 -240 100q-101 99 -101 240v366q-2 13 -6 33t-31 20q-44 0 -33.5 17.5z" />
<glyph unicode="X" horiz-adv-x="969" d="M60.5 1039.5q10.5 17.5 40.5 38.5q31 21 75.5 45.5t84.5 29.5q9 1 17 1q58 0 82 -44q28 -50 34 -70v-123q0 -32 23 -55t56 -23h105q32 0 55 23q24 22 24 55v236h262v-236q0 -117 -73 -209q73 -95 73 -210v-235h-262v235q0 32 -24 56q-23 23 -55 23h-105q-33 0 -56 -23 q-23 -25 -23 -56v-235h-262v235q0 117 72 210q-72 91 -72 209v52q-3 13 -6.5 33t-30.5 20q-45 0 -34.5 17.5z" />
<glyph unicode="Y" horiz-adv-x="969" d="M60.5 1039.5q10.5 17.5 40.5 38.5q31 21 75.5 45.5t83.5 29.5q9 1 17 1q59 0 83 -44q28 -49 34 -70v-228q0 -32 23 -56q22 -22 55 -22h106q33 0 78 -9v428h263v-757v-2v-1q0 -140 -101 -241q-100 -100 -240 -100h-106q-142 0 -240 100q-100 98 -100 241h262q0 -33 23 -56 t55 -23h106q32 0 55 23t23 56q0 32 -23 55q-22 23 -55 23h-106q-139 0 -240 101q-100 100 -100 240v157q-3 14 -7 33.5t-31 19.5q-44 0 -33.5 17.5z" />
<glyph unicode="Z" horiz-adv-x="947" d="M54 432q-1 8 -1 16q0 49 22 90q25 51 80 83l459 322h-288q-3 -14 -4 -33.5t26 -26.5q42 -12 28 -26t-48 -26q-36 -13 -86 -25q-32 -8 -60 -9q-15 0 -29 3q-72 11 -86 66t-13 77v210h669q97 0 145 -82q20 -36 25 -86q1 -10 1 -20q0 -41 -14 -79q-23 -58 -77 -90h1 l-459 -322h496v-210h-607q-96 0 -146 73q-30 40 -34 95z" />
<glyph unicode="[" horiz-adv-x="569" />
<glyph unicode="\" horiz-adv-x="569" />
<glyph unicode="]" horiz-adv-x="569" />
<glyph unicode="^" horiz-adv-x="961" />
<glyph unicode="_" />
<glyph unicode="`" horiz-adv-x="682" />
<glyph unicode="a" horiz-adv-x="968" d="M50 603v2l5 207q0 141 100 241q99 100 241 100h105q141 0 241 -100q100 -102 100 -241l-4 -156l-2 -209q3 -14 6.5 -33t31.5 -19q44 -1 33.5 -18t-40.5 -38q-30 -23 -75 -47.5t-85 -28.5q-7 -1 -14 -1q-40 0 -70 26q-60 -25 -128 -25h-104q-141 0 -241 100 q-100 98 -100 240zM311 603h1q0 -32 23 -55t56 -23h104q33 0 56 23t23 55l5 209q0 34 -23 56q-23 23 -55 23h-105q-33 0 -56 -23t-23 -56l-1 -1z" />
<glyph unicode="b" horiz-adv-x="967" d="M60 1364q10 17 40 38q32 22 76.5 46.5t83.5 29.5q9 1 17 1q59 1 83 -43q28 -50 33 -71v-60q4 -30 23 -49q23 -23 56 -23h105q142 0 240 -100q100 -100 100 -241v-289q0 -141 -99 -241q-101 -100 -241 -100h-105q-41 0 -79 9v-9h-263v1032q-1 13 -5 33t-32 20 q-43 0 -33 17zM393 597q4 -31 23 -49q23 -24 56 -24h105q33 0 55 24q23 21 23 55v289q0 32 -23 55q-22 24 -55 24h-105q-41 0 -79 9v-383z" />
<glyph unicode="c" horiz-adv-x="892" d="M50 603v2l6 207h-1q0 141 100 241t241 100h105q141 0 241 -100q100 -102 100 -241q-6 -20 -33 -70q-23 -43 -81 -43q-9 0 -20 1q-39 3 -83.5 28t-76.5 47q-30 21 -40 38.5t34 17.5q21 0 30 15q-7 14 -16 22q-23 23 -55 23h-105q-31 0 -56 -23q-23 -23 -23 -56v-1l-6 -208 h1q0 -32 23 -55q25 -23 56 -23h105q32 0 55 23t23 55h262q0 -142 -100 -240q-98 -100 -240 -100h-105q-141 0 -241 100q-100 98 -100 240z" />
<glyph unicode="d" horiz-adv-x="968" d="M50 603v289q0 141 100 241t241 100h105q32 0 55 23q22 21 23 49v60q6 21 34 71q24 43 82 43q8 0 17 -1q40 -5 85 -29.5t76 -46.5q30 -21 40 -38t-34 -17q-27 0 -31 -20t-6 -33v-1032h-263v9q-37 -9 -78 -9h-105q-139 0 -241 100q-100 100 -100 241zM312 603q0 -32 23 -55 q24 -24 56 -24h105q33 0 55 24q22 19 23 49v383q-37 -9 -78 -9h-105q-32 0 -56 -24q-23 -23 -23 -55v-289z" />
<glyph unicode="e" horiz-adv-x="928" d="M50 538v339q0 114 100 195q101 81 241 81h105q141 0 241 -81t100 -195t-100 -194q-100 -81 -241 -81h-105q-30 0 -56 -19q-23 -20 -23 -45q0 -27 24 -46q22 -18 55 -18h120q31 0 55 18q17 23 37 33q14 8 38 13q13 2 26 2q29 0 63 -8q50 -12 85 -26q35 -12 49 -26.5 t-28 -25.5q-13 -4 -21 -13l-2 -2q-26 -56 -76 -96q-100 -81 -241 -81h-105q-140 0 -241 81q-100 80 -100 195zM312 806q37 7 79 7h105q31 0 56 19q23 19 23 45q0 27 -24 45q-22 19 -55 19h-105q-32 0 -55 -19q-24 -18 -24 -45v-71z" />
<glyph unicode="f" horiz-adv-x="887" d="M50 52v341v1v2v416q0 139 100 241q100 100 241 100h105q141 0 241 -100t100 -241q-5 -21 -33 -70q-23 -43 -81 -43q-9 0 -19 1q-39 3 -84 28t-77 47q-30 21 -39.5 38.5t33.5 17.5q22 0 30 15q-7 14 -15 22q-24 23 -56 23h-105q-32 0 -55 -23q-24 -24 -24 -56v-88 q44 10 79 10h105v-263h-105q-32 0 -55 -23q-24 -23 -24 -55v-341h-262z" />
<glyph unicode="g" horiz-adv-x="933" d="M64 335.5q14 14.5 48 26.5q36 13 86 26q34 8 63 8q13 0 26 -2q56 -9 81 -57q22 -20 52 -20h123q32 0 55 23t23 56t-23 55q-21 23 -55 23h-105q-140 0 -241 101q-100 100 -100 240q0 142 100 241q100 100 241 100h105q141 0 241 -100q99 -99 99 -241v-419q0 -141 -99 -241 q-100 -100 -241 -100h-105q-141 0 -241 100q-57 59 -83 141q-1 0 -2 1q-7 9 -20 13q-42 11 -28 25.5zM359 815q0 -33 23 -56q22 -22 56 -22h105q41 0 78 -9v87q0 33 -23 56t-55 23h-105q-33 0 -56 -23t-23 -56z" />
<glyph unicode="h" horiz-adv-x="969" d="M60.5 1364q10.5 17 40.5 38q31 22 75.5 46.5t84.5 29.5q9 1 17 1q58 1 82 -43q28 -50 34 -71v-349q2 -28 23 -49q24 -23 56 -23h105q141 0 241 -100t100 -241v-341h-262v341q0 32 -24 56q-23 23 -55 23h-105q-40 0 -79 9v-429h-262v1032q-3 13 -6.5 33t-30.5 20 q-45 0 -34.5 17z" />
<glyph unicode="i" horiz-adv-x="445" d="M60.5 856.5q10.5 17.5 40.5 38.5q31 22 75.5 46.5t84.5 29.5q9 1 17 1q60 0 84 -44q28 -50 33 -70h-1v-596h-262v525q-2 13 -6 32.5t-31 19.5q-45 0 -34.5 17.5zM60.5 1250q10.5 17 40.5 38q31 22 75.5 46.5t84.5 29.5q9 1 17 1q60 1 84 -43q28 -50 33 -71h-1v-149h-262 v78q-2 13 -6 32.5t-31 20.5q-45 0 -34.5 17z" />
<glyph unicode="j" horiz-adv-x="546" d="M50 55v262h105q32 0 55 23q24 22 24 56v391q-3 13 -6.5 32.5t-31.5 19.5q-44 0 -34 17.5t41 38.5q31 22 75.5 46.5t84.5 29.5q9 1 17 1q58 0 82 -44q28 -49 34 -70v-462q0 -141 -100 -241t-241 -100h-105zM162 1250q10 17 41 38q31 22 75.5 46.5t84.5 29.5q9 1 17 1 q58 0 82 -43q28 -50 34 -71v-149h-262v78q-3 13 -6.5 32.5t-31.5 20.5q-44 0 -34 17z" />
<glyph unicode="k" horiz-adv-x="968" d="M60 1364q10 17 40 38q31 22 76 46.5t85 29.5q9 1 17 1q58 1 82 -43q28 -50 34 -71v-349q3 -30 23 -49q23 -23 55 -23h105q33 0 56 23t23 56v79h262v-79q0 -118 -72 -210q72 -93 72 -210v-341h-262v341q0 31 -23 56q-23 23 -56 23h-105q-41 0 -78 9v-429h-263v1032 q-2 13 -6 33t-31 20q-44 0 -34 17z" />
<glyph unicode="l" horiz-adv-x="628" d="M60 1364q10 17 41 38q31 22 75.5 46.5t84.5 29.5q9 1 17 1q58 1 82 -43q28 -50 34 -71l-5 -1h5v-761q0 -32 23 -55t56 -23h105v-262h-105q-141 0 -241 100q-100 98 -100 240v691h-1q-2 13 -6 33t-31 20q-44 0 -34 17z" />
<glyph unicode="m" horiz-adv-x="1410" d="M50 263v549q0 141 100 241t241 100h105q117 0 210 -72q92 72 209 72h106q141 0 240 -100q100 -100 100 -241v-549h-262v549q0 33 -23 56t-55 23h-106q-32 0 -55 -23t-23 -56v-549h-262v549q0 33 -23 56q-25 23 -56 23h-105q-32 0 -56 -23q-23 -23 -23 -56v-549h-262z" />
<glyph unicode="n" horiz-adv-x="886" d="M50 263v549q0 141 100 241q98 100 241 100h104q142 0 241 -100q100 -100 100 -241v-549h-262v549q0 33 -23 56t-56 23h-104q-33 0 -56 -23t-23 -56v-549h-262z" />
<glyph unicode="o" horiz-adv-x="891" d="M50 603v2l5 207q0 141 100 241q98 100 241 100h104q142 0 242 -100q99 -101 99 -241l-5 -217q-4 -137 -100 -232q-99 -100 -241 -100h-104q-141 0 -241 100q-100 98 -100 240zM311 603h1q0 -32 23 -55t56 -23h104q33 0 56 23t23 55l5 209q0 34 -23 56q-23 23 -56 23h-104 q-33 0 -56 -23t-23 -56l-1 -1z" />
<glyph unicode="p" horiz-adv-x="968" d="M60.5 1039.5q10.5 17.5 40.5 38.5q31 21 75.5 46t84.5 29q6 1 12 1q48 0 82 -35l39 25q37 9 79 9h105q141 0 241 -100q99 -101 99 -241v-289q0 -141 -99 -240q-100 -100 -241 -100h-105q-34 0 -56 -24q-20 -19 -23 -49v-60h-262v919q-3 13 -6.5 33t-31.5 20 q-44 0 -33.5 17.5zM394 436q45 9 79 9h105q32 0 55 23q24 22 24 55v289q0 33 -24 56q-23 23 -55 23h-105q-33 0 -56 -23q-20 -20 -23 -49v-383z" />
<glyph unicode="q" horiz-adv-x="967" d="M50 523v289q0 141 100 241q98 100 241 100h105q40 0 78 -9l40 -25q31 35 80 35q6 0 13 -1q39 -4 84 -29t77 -46q30 -21 39.5 -38.5t-33.5 -17.5q-28 0 -32 -20t-5 -33v-919h-263v60q-4 30 -23 49q-23 24 -55 24h-105q-143 0 -241 100q-100 98 -100 240zM312 523 q0 -32 23 -55t56 -23h105q33 0 78 -9v383q-4 29 -23 49q-23 23 -55 23h-105q-33 0 -56 -23t-23 -56v-289z" />
<glyph unicode="r" horiz-adv-x="887" d="M50 263v549q0 141 100 241t241 100h105q141 0 241 -100q100 -102 100 -241q-5 -20 -33 -70q-24 -43 -82 -43q-9 0 -19 1q-40 3 -84.5 28t-75.5 47q-30 21 -40.5 38.5t34.5 17.5q21 0 29 15q-5 11 -15 22q-23 23 -55 23h-105q-33 0 -56 -23t-23 -56v-549h-262z" />
<glyph unicode="s" horiz-adv-x="887" d="M50 538h262q0 -27 23 -45q23 -19 56 -19h105q32 0 55 18t23 46q0 26 -23 45q-25 19 -55 19h-105q-141 0 -241 81q-100 80 -100 194t100 195q98 81 241 81h105q140 0 241 -81q76 -63 95 -150q-6 -20 -34 -70q-24 -43 -80 -43q-9 0 -19 1q-40 3 -85 28t-76 47 q-41 28 -41 43q0 9 16 12q-6 1 -17 1h-105q-33 0 -56 -19t-23 -45t23 -45q24 -19 56 -19h105q139 0 241 -80q100 -82 100 -195q0 -114 -100 -195q-101 -81 -241 -81h-105q-143 0 -241 81q-100 80 -100 195z" />
<glyph unicode="t" horiz-adv-x="969" d="M60.5 1364q10.5 17 40.5 38q31 22 75.5 46.5t84.5 29.5q9 1 17 1q58 1 82 -43q28 -50 34 -71l-5 -1h5v-341q0 -32 23 -55q22 -24 55 -24h106v-261h-106q-41 0 -78 9v-89q0 -32 23 -55t55 -23h106q32 0 55 23t23 55h263q0 -141 -101 -240q-99 -100 -240 -100h-106 q-142 0 -240 100q-100 98 -100 240v420v271q-3 13 -6.5 33t-31.5 20q-44 0 -33.5 17z" />
<glyph unicode="u" horiz-adv-x="968" d="M60.5 1039.5q10.5 17.5 40.5 38.5q31 21 75.5 46t84.5 29q9 1 18 1q57 0 81 -42q28 -48 34 -69v-2v-1v-437q0 -32 23 -55t55 -23h105q33 0 56 23t23 55v550h262v-550q0 -142 -100 -240q-99 -100 -241 -100h-105q-142 0 -240 100q-101 99 -101 240v366q-2 13 -6 33t-31 20 q-44 0 -33.5 17.5z" />
<glyph unicode="v" horiz-adv-x="929" d="M60 1039.5q10 17.5 41 38.5q30 21 65 43t75 27q8 1 16 1q59 -1 83 -43q28 -48 34 -70v-1l109 -504l128 622h268l-218 -890h-178h-178l-174 706q-2 13 -6 33t-31 20q-44 0 -34 17.5z" />
<glyph unicode="w" horiz-adv-x="1493" d="M60.5 1039.5q10.5 17.5 40.5 38.5t74.5 45.5t84.5 29.5q9 1 17 1q59 0 83 -44q28 -50 34 -70v-437q0 -32 23 -55t55 -23h105q33 0 56 23t23 55v550h262v-550q0 -32 23 -55q24 -23 56 -23h105q32 0 55 23q24 22 24 55v550h262v-550q0 -140 -100 -240t-241 -100h-105 q-118 0 -210 72q-93 -72 -210 -72h-105q-142 0 -240 100q-101 99 -101 240v366q-2 13 -6 33t-31 20q-44 0 -33.5 17.5z" />
<glyph unicode="x" horiz-adv-x="969" d="M60.5 1039.5q10.5 17.5 40.5 38.5q31 21 75.5 45.5t84.5 29.5q9 1 17 1q58 0 82 -44q28 -50 34 -70v-123q0 -32 23 -55t56 -23h105q32 0 55 23q24 22 24 55v236h262v-236q0 -117 -73 -209q73 -95 73 -210v-235h-262v235q0 32 -24 56q-23 23 -55 23h-105q-33 0 -56 -23 q-23 -25 -23 -56v-235h-262v235q0 117 72 210q-72 91 -72 209v52q-3 13 -6.5 33t-30.5 20q-45 0 -34.5 17.5z" />
<glyph unicode="y" horiz-adv-x="969" d="M60.5 1039.5q10.5 17.5 40.5 38.5q31 21 75.5 45.5t83.5 29.5q9 1 17 1q59 0 83 -44q28 -49 34 -70v-228q0 -32 23 -56q22 -22 55 -22h106q33 0 78 -9v428h263v-757v-2v-1q0 -140 -101 -241q-100 -100 -240 -100h-106q-142 0 -240 100q-100 98 -100 241h262q0 -33 23 -56 t55 -23h106q32 0 55 23t23 56q0 32 -23 55q-22 23 -55 23h-106q-139 0 -240 101q-100 100 -100 240v157q-3 14 -7 33.5t-31 19.5q-44 0 -33.5 17.5z" />
<glyph unicode="z" horiz-adv-x="947" d="M54 432q-1 8 -1 16q0 49 22 90q25 51 80 83l459 322h-288q-3 -14 -4 -33.5t26 -26.5q42 -12 28 -26t-48 -26q-36 -13 -86 -25q-32 -8 -60 -9q-15 0 -29 3q-72 11 -86 66t-13 77v210h669q97 0 145 -82q20 -36 25 -86q1 -10 1 -20q0 -41 -14 -79q-23 -58 -77 -90h1 l-459 -322h496v-210h-607q-96 0 -146 73q-30 40 -34 95z" />
<glyph unicode="{" horiz-adv-x="684" />
<glyph unicode="|" horiz-adv-x="532" />
<glyph unicode="}" horiz-adv-x="684" />
<glyph unicode="~" horiz-adv-x="1196" />
<glyph unicode="&#xa1;" horiz-adv-x="682" />
<glyph unicode="&#xa2;" />
<glyph unicode="&#xa3;" />
<glyph unicode="&#xa4;" />
<glyph unicode="&#xa5;" />
<glyph unicode="&#xa6;" horiz-adv-x="532" />
<glyph unicode="&#xa7;" />
<glyph unicode="&#xa8;" horiz-adv-x="682" />
<glyph unicode="&#xa9;" horiz-adv-x="1509" />
<glyph unicode="&#xaa;" horiz-adv-x="758" />
<glyph unicode="&#xab;" />
<glyph unicode="&#xac;" horiz-adv-x="1196" />
<glyph unicode="&#xad;" horiz-adv-x="682" />
<glyph unicode="&#xae;" horiz-adv-x="1509" />
<glyph unicode="&#xaf;" horiz-adv-x="1131" />
<glyph unicode="&#xb0;" horiz-adv-x="819" />
<glyph unicode="&#xb1;" horiz-adv-x="1124" />
<glyph unicode="&#xb2;" horiz-adv-x="682" />
<glyph unicode="&#xb3;" horiz-adv-x="682" />
<glyph unicode="&#xb4;" horiz-adv-x="682" />
<glyph unicode="&#xb5;" horiz-adv-x="1180" />
<glyph unicode="&#xb6;" horiz-adv-x="1100" />
<glyph unicode="&#xb7;" horiz-adv-x="569" />
<glyph unicode="&#xb8;" horiz-adv-x="682" />
<glyph unicode="&#xb9;" horiz-adv-x="682" />
<glyph unicode="&#xba;" horiz-adv-x="748" />
<glyph unicode="&#xbb;" />
<glyph unicode="&#xbc;" horiz-adv-x="1708" />
<glyph unicode="&#xbd;" horiz-adv-x="1708" />
<glyph unicode="&#xbe;" horiz-adv-x="1708" />
<glyph unicode="&#xbf;" horiz-adv-x="1251" />
<glyph unicode="&#xc0;" horiz-adv-x="1366" />
<glyph unicode="&#xc1;" horiz-adv-x="1366" />
<glyph unicode="&#xc2;" horiz-adv-x="1366" />
<glyph unicode="&#xc3;" horiz-adv-x="1366" />
<glyph unicode="&#xc4;" horiz-adv-x="1366" />
<glyph unicode="&#xc5;" horiz-adv-x="1366" />
<glyph unicode="&#xc6;" horiz-adv-x="2048" />
<glyph unicode="&#xc7;" horiz-adv-x="1479" />
<glyph unicode="&#xc8;" horiz-adv-x="1366" />
<glyph unicode="&#xc9;" horiz-adv-x="1366" />
<glyph unicode="&#xca;" horiz-adv-x="1366" />
<glyph unicode="&#xcb;" horiz-adv-x="1366" />
<glyph unicode="&#xcc;" horiz-adv-x="569" />
<glyph unicode="&#xcd;" horiz-adv-x="569" />
<glyph unicode="&#xce;" horiz-adv-x="569" />
<glyph unicode="&#xcf;" horiz-adv-x="569" />
<glyph unicode="&#xd0;" horiz-adv-x="1479" />
<glyph unicode="&#xd1;" horiz-adv-x="1479" />
<glyph unicode="&#xd2;" horiz-adv-x="1593" />
<glyph unicode="&#xd3;" horiz-adv-x="1593" />
<glyph unicode="&#xd4;" horiz-adv-x="1593" />
<glyph unicode="&#xd5;" horiz-adv-x="1593" />
<glyph unicode="&#xd6;" horiz-adv-x="1593" />
<glyph unicode="&#xd7;" horiz-adv-x="1196" />
<glyph unicode="&#xd8;" horiz-adv-x="1593" />
<glyph unicode="&#xd9;" horiz-adv-x="1479" />
<glyph unicode="&#xda;" horiz-adv-x="1479" />
<glyph unicode="&#xdb;" horiz-adv-x="1479" />
<glyph unicode="&#xdc;" horiz-adv-x="1479" />
<glyph unicode="&#xdd;" horiz-adv-x="1366" />
<glyph unicode="&#xde;" horiz-adv-x="1366" />
<glyph unicode="&#xdf;" horiz-adv-x="1251" />
<glyph unicode="&#xe0;" />
<glyph unicode="&#xe1;" />
<glyph unicode="&#xe2;" />
<glyph unicode="&#xe3;" />
<glyph unicode="&#xe4;" />
<glyph unicode="&#xe5;" />
<glyph unicode="&#xe6;" horiz-adv-x="1821" />
<glyph unicode="&#xe7;" horiz-adv-x="1024" />
<glyph unicode="&#xe8;" />
<glyph unicode="&#xe9;" />
<glyph unicode="&#xea;" />
<glyph unicode="&#xeb;" />
<glyph unicode="&#xec;" horiz-adv-x="569" />
<glyph unicode="&#xed;" horiz-adv-x="569" />
<glyph unicode="&#xee;" horiz-adv-x="569" />
<glyph unicode="&#xef;" horiz-adv-x="569" />
<glyph unicode="&#xf0;" />
<glyph unicode="&#xf1;" />
<glyph unicode="&#xf2;" />
<glyph unicode="&#xf3;" />
<glyph unicode="&#xf4;" />
<glyph unicode="&#xf5;" />
<glyph unicode="&#xf6;" />
<glyph unicode="&#xf7;" horiz-adv-x="1124" />
<glyph unicode="&#xf8;" horiz-adv-x="1251" />
<glyph unicode="&#xf9;" />
<glyph unicode="&#xfa;" />
<glyph unicode="&#xfb;" />
<glyph unicode="&#xfc;" />
<glyph unicode="&#xfd;" horiz-adv-x="1024" />
<glyph unicode="&#xfe;" />
<glyph unicode="&#xff;" horiz-adv-x="1024" />
<glyph unicode="&#x152;" horiz-adv-x="2048" />
<glyph unicode="&#x153;" horiz-adv-x="1933" />
<glyph unicode="&#x178;" horiz-adv-x="1366" />
<glyph unicode="&#x2c6;" horiz-adv-x="682" />
<glyph unicode="&#x2dc;" horiz-adv-x="682" />
<glyph unicode="&#x2000;" horiz-adv-x="739" />
<glyph unicode="&#x2001;" horiz-adv-x="1479" />
<glyph unicode="&#x2002;" horiz-adv-x="739" />
<glyph unicode="&#x2003;" horiz-adv-x="1479" />
<glyph unicode="&#x2004;" horiz-adv-x="493" />
<glyph unicode="&#x2005;" horiz-adv-x="369" />
<glyph unicode="&#x2006;" horiz-adv-x="246" />
<glyph unicode="&#x2007;" horiz-adv-x="246" />
<glyph unicode="&#x2008;" horiz-adv-x="184" />
<glyph unicode="&#x2009;" horiz-adv-x="295" />
<glyph unicode="&#x200a;" horiz-adv-x="82" />
<glyph unicode="&#x2010;" horiz-adv-x="682" />
<glyph unicode="&#x2011;" horiz-adv-x="682" />
<glyph unicode="&#x2012;" horiz-adv-x="682" />
<glyph unicode="&#x2013;" />
<glyph unicode="&#x2014;" horiz-adv-x="2048" />
<glyph unicode="&#x2018;" horiz-adv-x="455" />
<glyph unicode="&#x2019;" horiz-adv-x="455" />
<glyph unicode="&#x201a;" horiz-adv-x="455" />
<glyph unicode="&#x201c;" horiz-adv-x="682" />
<glyph unicode="&#x201d;" horiz-adv-x="682" />
<glyph unicode="&#x201e;" horiz-adv-x="682" />
<glyph unicode="&#x2022;" horiz-adv-x="717" />
<glyph unicode="&#x2026;" horiz-adv-x="2048" />
<glyph unicode="&#x202f;" horiz-adv-x="295" />
<glyph unicode="&#x2039;" horiz-adv-x="682" />
<glyph unicode="&#x203a;" horiz-adv-x="682" />
<glyph unicode="&#x205f;" horiz-adv-x="369" />
<glyph unicode="&#x20ac;" />
<glyph unicode="&#x2122;" horiz-adv-x="2048" />
<glyph unicode="&#x25fc;" horiz-adv-x="1155" d="M0 0v1155h1155v-1155h-1155z" />
</font>
</defs>
</svg>
